<svg xmlns="http://www.w3.org/2000/svg" viewBox="0 0 837 753"><defs><style>.cls-1{fill:#0a3a77;}</style></defs><title>Logo Yeik</title><g id="Capa_2" data-name="Capa 2"><g id="Capa_1-2" data-name="Capa 1"><polygon class="cls-1" points="499.2 492.9 475.1 468.9 461.9 455.6 462.2 455.3 386 377.7 539.9 377.7 600 437.9 600 437.9 621.7 459.5 621.7 261.6 339.9 261.6 339.9 543.4 549.7 543.4 499.2 492.9 499.2 492.9"/><path class="cls-1" d="M124.6,614.4c0,76.2,62.4,138.6,138.6,138.6H698.4a137.3,137.3,0,0,0,51-9.8l-85.2-85.2H260.9a52.8,52.8,0,0,1-52.7-52.7V261.6H124.6Z"/><path class="cls-1" d="M698.4,52H339.9v95.1H700.7a52.8,52.8,0,0,1,52.7,52.7V591.2l73.9,73.9a137.3,137.3,0,0,0,9.7-50.7V190.6C837,114.4,774.6,52,698.4,52Z"/><rect class="cls-1" x="124.6" y="133.7" width="83.6" height="83.61"/><rect class="cls-1" x="52.6" y="52" width="68" height="67.96"/><rect class="cls-1" width="45" height="44.96"/></g></g></svg>